<svg width="512" height="512" viewBox="0 0 512 512" xmlns="http://www.w3.org/2000/svg">
  <rect width="512" height="512" rx="96" fill="#0A0A0B"/>
  <path d="M198.358 152.069L361.396 152.069L349.384 204.071L338.397 204.071Q337.812 188.397 331.732 176.898Q325.653 165.399 316.864 164.081Q312.323 163.495 306.244 163.202Q300.165 162.909 292.255 162.909L256.659 162.909L237.177 247.431L261.054 247.431Q269.550 247.431 276.581 245.600Q283.612 243.769 290.204 237.909Q293.573 234.833 297.748 227.948Q301.923 221.063 304.413 213.300L315.546 213.300L296.796 294.892L285.663 294.892Q285.810 293.134 286.029 290.790Q286.249 288.446 286.249 285.663Q286.249 281.562 285.663 276.288Q285.077 271.015 283.466 268.378Q279.511 262.372 273.212 260.468Q266.913 258.563 258.271 258.563L234.394 258.563L217.694 331.366Q217.401 332.538 217.255 333.783Q217.108 335.028 217.108 336.200Q217.108 339.423 218.427 341.840Q219.745 344.257 222.968 346.161Q225.312 347.333 232.196 348.651Q239.081 349.970 243.476 350.263L241.132 359.931L150.604 359.931L152.948 350.263Q157.489 349.970 164.667 349.311Q171.845 348.651 174.481 347.626Q179.608 345.575 182.245 341.840Q184.882 338.104 186.054 332.978L221.063 181.513Q221.356 180.048 221.576 178.656Q221.796 177.265 221.796 175.800Q221.796 172.870 220.697 170.746Q219.599 168.622 216.083 166.864Q212.860 165.106 206.562 163.642Q200.263 162.177 196.015 161.737" fill="#F59E0B"/>
</svg>
